# AST/ASF file generated using VICON BodyLanguage
# -----------------------------------------------
:version 1.10
:name VICON
:units
  mass 1.0
  length 0.45
  angle deg
:documentation
   .ast/.asf automatically generated from VICON data using
   VICON BodyBuilder and BodyLanguage model FoxedUp or BRILLIANT.MOD
:root
   order TX TY TZ RX RY RZ
   axis XYZ
   position 0 0 0  
   orientation 0 0 0 
:bonedata
  begin
     id 1 
     name lhipjoint
     direction 0.625129 -0.738222 0.253461 
     length 2.5165 
     axis 0 0 0  XYZ
  end
  begin
     id 2 
     name lfemur
     direction 0.34202 -0.939693 0  
     length 7.54288  
     axis 0 0 20  XYZ
    dof rx ry rz
    limits (-160.0 20.0)
           (-70.0 70.0)
           (-60.0 70.0)
  end
  begin
     id 3 
     name ltibia
     direction 0.34202 -0.939693 0   
     length 7.71864   
     axis 0 0 20   XYZ
    dof rx
    limits (-10.0 170.0)
  end
  begin
     id 4 
     name lfoot
     direction 0.0772037 -0.212115 0.97419   
     length 2.18429   
     axis -90 7.62852e-016 20   XYZ
    dof rx rz
    limits (-45.0 90.0)
           (-70.0 20.0)
  end
  begin
     id 5 
     name ltoes
     direction 1.53513e-011 -4.21834e-011 1   
     length 1.09718   
     axis -90 7.62852e-016 20   XYZ
    dof rx
    limits (-90.0 20.0)
  end
  begin
     id 6 
     name rhipjoint
     direction -0.621946 -0.740623 0.254285   
     length 2.50835  
     axis 0 0 0  XYZ 
  end
  begin
     id 7 
     name rfemur
     direction -0.34202 -0.939693 0   
     length 7.43366   
     axis 0 0 -20   XYZ
    dof rx ry rz
    limits (-160.0 20.0)
           (-70.0 70.0)
           (-70.0 60.0)
  end
  begin
     id 8 
     name rtibia
     direction -0.34202 -0.939693 0   
     length 7.77122   
     axis 0 0 -20   XYZ
    dof rx
    limits (-10.0 170.0)
 end
 begin
     id 9 
     name rfoot
     direction -0.082694 -0.2272 0.970331   
     length 2.2293  
     axis -90 -7.62852e-016 -20   XYZ
    dof rx rz
    limits (-45.0 90.0)
           (-20.0 70.0)
  end
  begin
     id 10 
     name rtoes
     direction -1.53565e-011 -4.21695e-011 1   
     length 1.1178   
     axis -90 -7.62852e-016 -20   XYZ
    dof rx
    limits (-90.0 20.0)
  end
  begin
     id 11 
     name lowerback
     direction -0.000695208 0.988391 -0.151929   
     length 1.95077   
     axis 0 0 0   XYZ
    dof rx ry rz
    limits (-20.0 45.0)
           (-30.0 30.0)
           (-30.0 30.0)
  end
  begin
     id 12 
     name upperback
     direction -0.00268925 0.999885 -0.0149203   
     length 1.96246   
     axis 0 0 0   XYZ
    dof rx ry rz
    limits (-20.0 45.0)
           (-30.0 30.0)
           (-30.0 30.0)
  end
  begin
     id 13 
     name thorax
     direction -0.000848408 0.998481 0.0550912   
     length 2.00867   
     axis 0 0 0   XYZ
    dof rx ry rz
    limits (-20.0 45.0)
           (-30.0 30.0)
           (-30.0 30.0)
  end
  begin
     id 14 
     name lowerneck
     direction -0.00577709 0.998999 0.0443608   
     length 1.75762   
     axis 0 0 0   XYZ
    dof rx ry rz
    limits (-20.0 45.0)
           (-30.0 30.0)
           (-30.0 30.0)
  end
  begin
     id 15 
     name upperneck
     direction 0.0320945 0.999136 0.0264105   
     length 1.72601   
     axis 0 0 0   XYZ
    dof rx ry rz
    limits (-20.0 45.0)
           (-30.0 30.0)
           (-30.0 30.0)
  end
  begin
     id 16
     name head
     direction 0.0120552 0.999916 0.00480151  
     length 1.79973  
     axis 0 0 0   XYZ
    dof rx ry rz
    limits (-20.0 45.0)
           (-30.0 30.0)
           (-30.0 30.0)
  end
  begin
     id 17 
     name lclavicle
     direction 0.909 0.371533 -0.188897  
     length 3.47956  
     axis 0 0 0   XYZ
    dof ry rz
    limits (-20.0 10.0)
           (0.0 20.0)
  end
  begin
     id 18 
     name lhumerus
     direction 1 -4.48963e-011 -6.48352e-028   
     length 5.52302   
     axis 180 -30 -90   XYZ
    dof rx ry rz
    limits (-60.0 90.0)
           (-90.0 90.0)
           (-90.0 90.0)
  end
  begin
     id 19
     name lradius
     direction 1 -4.48968e-011 -4.78536e-027   
     length 3.58675   
     axis 180 -30 -90   XYZ
    dof rx
    limits (-10.0 170.0)
  end
  begin
     id 20
     name lwrist
     direction 1 -4.48942e-011 -9.9435e-027   
     length 1.79337   
     axis 8.54312e-015 90 90   XYZ
    dof ry
    limits (-180.0 0.0)
 end
  begin
     id 21 
     name lhand
     direction 1 -4.4904e-011 -1.9887e-026   
     length 0.536412   
     axis 1.26896e-014 90 90   XYZ
    dof rx rz
    limits (-90.0 90.0)
           (-45.0 45.0)
  end
  begin
     id 22 
     name lfingers
     direction 1 -4.48893e-011 -3.9774e-026   
     length 0.432469   
     axis 2.53792e-014 90 90   XYZ
    dof rx
    limits (0.0 90.0)
  end
  begin
     id 23
     name lthumb
     direction 0.707107 -6.34934e-011 0.707107   
     length 0.620942   
     axis -90 45 2.85299e-015   XYZ
    dof rx rz
    limits (-45.0 45.0)
           (-45.0 45.0)
  end
  begin
     id 24 
     name rclavicle
     direction -0.89595 0.416672 -0.153813   
     length 3.44099  
     axis 0 0 0   XYZ 
    dof ry rz
    limits (-10.0 20.0)
           (-20.0 0.0)
  end
  begin
     id 25 
     name rhumerus
     direction -1 -4.48952e-011 5.57804e-028  
     length 5.8478   
     axis 180 30 90   XYZ
    dof rx ry rz
    limits (-90.0 60.0)
           (-90.0 90.0)
           (-90.0 90.0)
  end
  begin
     id 26 
     name rradius
     direction -1 -4.48967e-011 -7.93646e-027   
     length 3.62717   
     axis 180 30 90   XYZ
    dof rx
    limits (-10.0 170.0)
  end
  begin
     id 27 
     name rwrist
     direction -1 -4.49008e-011 -9.9435e-027   
     length 1.81359   
     axis 8.54312e-015 -90 -90   XYZ
    dof ry
    limits (-180.0 0.0)
  end
  begin
     id 28
     name rhand
     direction -1 -4.48812e-011 -1.9887e-026   
     length 0.650516   
     axis 1.26896e-014 -90 -90   XYZ
    dof rx rz
    limits (-90.0 90.0)
           (-45.0 45.0)
  end
  begin
     id 29
     name rfingers
     direction -1 -4.49228e-011 -3.9774e-026   
     length 0.524463   
     axis 2.53792e-014 -90 -90   XYZ
    dof rx
    limits (0.0 90.0)
  end
  begin
     id 30
     name rthumb
     direction -0.707107 -6.34912e-011 0.707107   
     length 0.753027   
     axis -90 -45 -2.85299e-015   XYZ
    dof rx rz
    limits (-45.0 45.0)
           (-45.0 45.0)
  end
:hierarchy
  begin
    root lhipjoint rhipjoint lowerback
    lhipjoint lfemur
    lfemur ltibia
    ltibia lfoot
    lfoot ltoes
    rhipjoint rfemur
    rfemur rtibia
    rtibia rfoot
    rfoot rtoes
    lowerback upperback
    upperback thorax
    thorax lowerneck lclavicle rclavicle
    lowerneck upperneck
    upperneck head
    lclavicle lhumerus
    lhumerus lradius
    lradius lwrist
    lwrist lhand lthumb
    lhand lfingers
    rclavicle rhumerus
    rhumerus rradius
    rradius rwrist
    rwrist rhand rthumb
    rhand rfingers
  end

#!OML:ASF F:\VICON\USERDATA\INSTALL\rory3\rory3.ASF
:FULLY-SPECIFIED
:DEGREES
1079
root -3.17996 17.8214 13.207 -187.677 62.3767 -186.95
lowerback 9.38392 -8.03292 -6.55746
upperback 2.89582 -11.1604 -2.26789
thorax -1.37364 -5.50273 2.31574
lowerneck -0.984646 -23.8902 -1.9816
upperneck 22.5445 -33.6897 6.1681
head 8.77104 -15.5008 -0.606793
rclavicle 3.16068e-014 -3.73715e-014
rhumerus -41.9499 -19.8572 -62.437
rradius 23.3002
rwrist 18.3027
rhand -13.574 16.9772
rfingers 7.12502
rthumb 12.5398 -12.6265
lclavicle 3.16068e-014 -3.73715e-014
lhumerus -31.4917 5.52634 78.8625
lradius 5.89796
lwrist 38.4383
lhand -47.0347 33.15
lfingers 7.12502
lthumb -19.7407 62.1676
rfemur -11.0827 25.6609 11.2269
rtibia 55.6396
rfoot -4.81069 4.79191
rtoes -2.15501
lfemur -7.91093 -1.70688 -12.8965
ltibia 16.2694
lfoot -1.37755 12.648
ltoes -20.8869
1080
root -3.23386 17.8039 13.3902 -187.474 62.0849 -186.895
lowerback 9.29353 -7.9834 -6.47652
upperback 2.8438 -11.0863 -2.30334
thorax -1.4075 -5.46412 2.22539
lowerneck -1.04613 -23.9878 -1.58734
upperneck 22.4869 -33.8125 6.07919
head 8.68642 -15.543 -0.665495
rclavicle 5.06901e-014 4.37326e-014
rhumerus -42.5168 -22.3521 -62.0042
rradius 23.7756
rwrist 20.8576
rhand -14.0589 17.5164
rfingers 7.12502
rthumb 12.0723 -12.1153
lclavicle 5.06901e-014 4.37326e-014
lhumerus -32.2526 4.90392 78.8204
lradius 5.92013
lwrist 41.8988
lhand -47.4854 33.8168
lfingers 7.12502
lthumb -20.1739 62.7892
rfemur -9.8447 26.2326 11.3198
rtibia 54.0925
rfoot -4.13289 5.46017
rtoes 0.168656
lfemur -8.62093 -1.95719 -12.3908
ltibia 16.2807
lfoot -0.82378 12.4792
ltoes -22.2213
1081
root -3.28206 17.781 13.5779 -186.235 61.9407 -185.764
lowerback 9.03608 -7.88599 -5.92377
upperback 2.84684 -10.8954 -2.26052
thorax -1.37471 -5.37343 1.9336
lowerneck -0.975762 -24.1857 -0.979572
upperneck 22.2422 -34.071 6.08534
head 8.50633 -15.6486 -0.694135
rclavicle 3.89618e-014 1.59028e-015
rhumerus -41.5807 -19.1453 -63.7492
rradius 24.272
rwrist 17.0759
rhand -14.1857 17.2602
rfingers 7.12502
rthumb 11.95 -12.3787
lclavicle 3.89618e-014 1.59028e-015
lhumerus -32.9328 4.02009 78.5813
lradius 5.99084
lwrist 44.4411
lhand -47.9961 35.1595
lfingers 7.12502
lthumb -20.6646 64.0794
rfemur -8.63349 26.9604 12.0236
rtibia 52.3668
rfoot -3.31246 5.80862
rtoes 3.50871
lfemur -9.45731 -2.09435 -11.3355
ltibia 16.4027
lfoot -0.540409 12.3325
ltoes -22.4338
1082
root -3.32098 17.7525 13.7554 -184.435 62.0323 -184.014
lowerback 8.57362 -7.80215 -4.96674
upperback 2.88432 -10.6814 -2.13327
thorax -1.25023 -5.27661 1.48222
lowerneck -1.11031 -24.2968 -0.57901
upperneck 22.2442 -34.2389 6.04879
head 8.46537 -15.6989 -0.757766
rclavicle 1.28017e-013 -2.38542e-015
rhumerus -41.2694 -18.6166 -64.4689
rradius 24.7494
rwrist 16.5294
rhand -13.954 17.2463
rfingers 7.12502
rthumb 12.1734 -12.3795
lclavicle 1.28017e-013 -2.38542e-015
lhumerus -33.8565 3.45462 78.5339
lradius 6.34866
lwrist 45.9524
lhand -49.8994 35.8483
lfingers 7.12502
lthumb -22.4925 64.5584
rfemur -7.23794 27.7408 13.171
rtibia 50.5056
rfoot -2.90007 5.87913
rtoes 1.97992
lfemur -10.1172 -2.00718 -9.90043
ltibia 16.2818
lfoot -0.149268 12.2595
ltoes -22.9149
